FILE "Addie no Okurimono - To Moze from Addie (Japan).bin" BINARY
  TRACK 01 MODE2/2352
    INDEX 01 00:00:00
  TRACK 02 AUDIO
    INDEX 00 09:32:47
    INDEX 01 09:34:47
  TRACK 03 AUDIO
    INDEX 00 11:53:14
    INDEX 01 11:55:14
  TRACK 04 AUDIO
    INDEX 00 14:38:74
    INDEX 01 14:40:74
REM LEADOUT 17:17:55
